<mxfile host="app.diagrams.net" agent="Mozilla/5.0 (Windows NT 10.0; Win64; x64) AppleWebKit/537.36 (KHTML, like Gecko) Chrome/128.0.0.0 Safari/537.36 Edg/128.0.0.0" version="24.7.10">
  <diagram name="第 1 页" id="naORdUVhkGL51rGIjore">
    <mxGraphModel dx="2090" dy="1130" grid="0" gridSize="10" guides="1" tooltips="1" connect="1" arrows="1" fold="1" page="1" pageScale="1" pageWidth="827" pageHeight="1169" math="0" shadow="0">
      <root>
        <mxCell id="0" />
        <mxCell id="1" parent="0" />
        <mxCell id="PsaLoDMkR1xvhBFZUS9O-1" value="" style="rounded=0;whiteSpace=wrap;html=1;fillColor=#ffffce;strokeColor=#36393d;" vertex="1" parent="1">
          <mxGeometry x="80" y="120" width="200" height="120" as="geometry" />
        </mxCell>
        <mxCell id="PsaLoDMkR1xvhBFZUS9O-3" value="" style="endArrow=none;dashed=1;html=1;rounded=0;entryX=0.422;entryY=0.983;entryDx=0;entryDy=0;entryPerimeter=0;" edge="1" parent="1">
          <mxGeometry width="50" height="50" relative="1" as="geometry">
            <mxPoint x="216.6" y="315.04" as="sourcePoint" />
            <mxPoint x="188.99999999999997" y="239.99999999999991" as="targetPoint" />
          </mxGeometry>
        </mxCell>
        <mxCell id="PsaLoDMkR1xvhBFZUS9O-4" value="&lt;font style=&quot;font-size: 14px;&quot;&gt;Test2&lt;/font&gt;" style="text;html=1;align=center;verticalAlign=middle;whiteSpace=wrap;rounded=0;" vertex="1" parent="1">
          <mxGeometry x="150" y="125" width="60" height="30" as="geometry" />
        </mxCell>
        <mxCell id="PsaLoDMkR1xvhBFZUS9O-5" value="&lt;font style=&quot;font-size: 15px;&quot;&gt;generalization&lt;/font&gt;" style="text;html=1;align=center;verticalAlign=middle;whiteSpace=wrap;rounded=0;" vertex="1" parent="1">
          <mxGeometry x="150" y="148" width="60" height="30" as="geometry" />
        </mxCell>
        <mxCell id="PsaLoDMkR1xvhBFZUS9O-8" value="&lt;div&gt;&lt;br/&gt;&lt;/div&gt;" style="text;html=1;align=center;verticalAlign=middle;whiteSpace=wrap;rounded=0;" vertex="1" parent="1">
          <mxGeometry x="485" y="150" width="60" height="30" as="geometry" />
        </mxCell>
        <mxCell id="PsaLoDMkR1xvhBFZUS9O-12" value="" style="endArrow=none;html=1;rounded=0;" edge="1" parent="1">
          <mxGeometry width="50" height="50" relative="1" as="geometry">
            <mxPoint x="80" y="185" as="sourcePoint" />
            <mxPoint x="278" y="185" as="targetPoint" />
          </mxGeometry>
        </mxCell>
        <mxCell id="PsaLoDMkR1xvhBFZUS9O-13" value="" style="endArrow=none;html=1;rounded=0;" edge="1" parent="1">
          <mxGeometry width="50" height="50" relative="1" as="geometry">
            <mxPoint x="80" y="192" as="sourcePoint" />
            <mxPoint x="278" y="192" as="targetPoint" />
          </mxGeometry>
        </mxCell>
        <mxCell id="PsaLoDMkR1xvhBFZUS9O-14" value="" style="rounded=0;whiteSpace=wrap;html=1;fillColor=#ffffce;strokeColor=#36393d;" vertex="1" parent="1">
          <mxGeometry x="207" y="478" width="266" height="120" as="geometry" />
        </mxCell>
        <mxCell id="PsaLoDMkR1xvhBFZUS9O-15" value="" style="rounded=0;whiteSpace=wrap;html=1;fillColor=#ffffce;strokeColor=#36393d;" vertex="1" parent="1">
          <mxGeometry x="515" y="478" width="266" height="120" as="geometry" />
        </mxCell>
        <mxCell id="PsaLoDMkR1xvhBFZUS9O-16" value="" style="endArrow=none;html=1;rounded=0;exitX=0.5;exitY=0;exitDx=0;exitDy=0;entryX=0;entryY=0.5;entryDx=0;entryDy=0;" edge="1" parent="1" source="PsaLoDMkR1xvhBFZUS9O-14" target="PsaLoDMkR1xvhBFZUS9O-18">
          <mxGeometry width="50" height="50" relative="1" as="geometry">
            <mxPoint x="374" y="419" as="sourcePoint" />
            <mxPoint x="445" y="340" as="targetPoint" />
          </mxGeometry>
        </mxCell>
        <mxCell id="PsaLoDMkR1xvhBFZUS9O-17" value="" style="endArrow=none;html=1;rounded=0;entryX=0.5;entryY=0;entryDx=0;entryDy=0;exitX=0.118;exitY=0.517;exitDx=0;exitDy=0;exitPerimeter=0;" edge="1" parent="1" source="PsaLoDMkR1xvhBFZUS9O-19" target="PsaLoDMkR1xvhBFZUS9O-15">
          <mxGeometry width="50" height="50" relative="1" as="geometry">
            <mxPoint x="571" y="342" as="sourcePoint" />
            <mxPoint x="573" y="482" as="targetPoint" />
          </mxGeometry>
        </mxCell>
        <mxCell id="PsaLoDMkR1xvhBFZUS9O-18" value="" style="triangle;whiteSpace=wrap;html=1;rotation=-55;" vertex="1" parent="1">
          <mxGeometry x="438" y="311.13" width="19.63" height="34" as="geometry" />
        </mxCell>
        <mxCell id="PsaLoDMkR1xvhBFZUS9O-19" value="" style="triangle;whiteSpace=wrap;html=1;rotation=-120;" vertex="1" parent="1">
          <mxGeometry x="558" y="314" width="19.97" height="31.13" as="geometry" />
        </mxCell>
        <mxCell id="PsaLoDMkR1xvhBFZUS9O-24" value="" style="endArrow=none;html=1;rounded=0;entryX=1;entryY=0.5;entryDx=0;entryDy=0;exitX=-0.004;exitY=0.518;exitDx=0;exitDy=0;exitPerimeter=0;" edge="1" parent="1" source="PsaLoDMkR1xvhBFZUS9O-14" target="PsaLoDMkR1xvhBFZUS9O-14">
          <mxGeometry width="50" height="50" relative="1" as="geometry">
            <mxPoint x="209" y="540" as="sourcePoint" />
            <mxPoint x="403" y="540" as="targetPoint" />
          </mxGeometry>
        </mxCell>
        <mxCell id="PsaLoDMkR1xvhBFZUS9O-25" value="" style="endArrow=none;html=1;rounded=0;entryX=1;entryY=0.5;entryDx=0;entryDy=0;exitX=-0.003;exitY=0.581;exitDx=0;exitDy=0;exitPerimeter=0;" edge="1" parent="1" source="PsaLoDMkR1xvhBFZUS9O-14">
          <mxGeometry width="50" height="50" relative="1" as="geometry">
            <mxPoint x="209" y="548" as="sourcePoint" />
            <mxPoint x="473" y="545" as="targetPoint" />
          </mxGeometry>
        </mxCell>
        <mxCell id="PsaLoDMkR1xvhBFZUS9O-26" value="" style="endArrow=none;html=1;rounded=0;entryX=1;entryY=0.5;entryDx=0;entryDy=0;exitX=-0.004;exitY=0.518;exitDx=0;exitDy=0;exitPerimeter=0;" edge="1" parent="1">
          <mxGeometry width="50" height="50" relative="1" as="geometry">
            <mxPoint x="515" y="539" as="sourcePoint" />
            <mxPoint x="782" y="537" as="targetPoint" />
          </mxGeometry>
        </mxCell>
        <mxCell id="PsaLoDMkR1xvhBFZUS9O-27" value="" style="endArrow=none;html=1;rounded=0;entryX=1;entryY=0.5;entryDx=0;entryDy=0;exitX=-0.003;exitY=0.581;exitDx=0;exitDy=0;exitPerimeter=0;" edge="1" parent="1">
          <mxGeometry width="50" height="50" relative="1" as="geometry">
            <mxPoint x="515" y="547" as="sourcePoint" />
            <mxPoint x="782" y="544" as="targetPoint" />
          </mxGeometry>
        </mxCell>
        <mxCell id="PsaLoDMkR1xvhBFZUS9O-34" value="Teacher" style="text;align=center;fontStyle=1;verticalAlign=middle;spacingLeft=3;spacingRight=3;strokeColor=none;rotatable=0;points=[[0,0.5],[1,0.5]];portConstraint=eastwest;html=1;" vertex="1" parent="1">
          <mxGeometry x="300" y="481" width="80" height="26" as="geometry" />
        </mxCell>
        <mxCell id="PsaLoDMkR1xvhBFZUS9O-35" value="Student" style="text;align=center;fontStyle=1;verticalAlign=middle;spacingLeft=3;spacingRight=3;strokeColor=none;rotatable=0;points=[[0,0.5],[1,0.5]];portConstraint=eastwest;html=1;" vertex="1" parent="1">
          <mxGeometry x="608" y="481" width="80" height="26" as="geometry" />
        </mxCell>
        <mxCell id="PsaLoDMkR1xvhBFZUS9O-41" value="&lt;i style=&quot;font-weight: 400;&quot;&gt;&lt;font style=&quot;font-size: 14px;&quot;&gt;Persion&lt;/font&gt;&lt;/i&gt;" style="swimlane;fontStyle=1;align=center;verticalAlign=top;childLayout=stackLayout;horizontal=1;startSize=63;horizontalStack=0;resizeParent=1;resizeParentMax=0;resizeLast=0;collapsible=1;marginBottom=0;whiteSpace=wrap;html=1;fillColor=#FFFFCE;strokeColor=#36393d;" vertex="1" parent="1">
          <mxGeometry x="373.97" y="125" width="314.03" height="195" as="geometry">
            <mxRectangle x="417.97" y="146" width="82" height="29" as="alternateBounds" />
          </mxGeometry>
        </mxCell>
        <mxCell id="PsaLoDMkR1xvhBFZUS9O-45" value="&lt;span style=&quot;font-size: 15px; font-weight: 400; text-wrap: wrap;&quot;&gt;generalization&lt;/span&gt;" style="text;align=center;fontStyle=1;verticalAlign=middle;spacingLeft=3;spacingRight=3;strokeColor=#36393d;rotatable=0;points=[[0,0.5],[1,0.5]];portConstraint=eastwest;html=1;fillColor=#FFFFCE;" vertex="1" parent="PsaLoDMkR1xvhBFZUS9O-41">
          <mxGeometry y="63" width="314.03" height="26" as="geometry" />
        </mxCell>
        <mxCell id="PsaLoDMkR1xvhBFZUS9O-42" value="+ field: type" style="text;strokeColor=#36393d;fillColor=#FFFFCE;align=left;verticalAlign=top;spacingLeft=4;spacingRight=4;overflow=hidden;rotatable=0;points=[[0,0.5],[1,0.5]];portConstraint=eastwest;whiteSpace=wrap;html=1;" vertex="1" parent="PsaLoDMkR1xvhBFZUS9O-41">
          <mxGeometry y="89" width="314.03" height="26" as="geometry" />
        </mxCell>
        <mxCell id="PsaLoDMkR1xvhBFZUS9O-44" value="+ method(type): type" style="text;strokeColor=none;fillColor=#FFFFCE;align=left;verticalAlign=top;spacingLeft=4;spacingRight=4;overflow=hidden;rotatable=0;points=[[0,0.5],[1,0.5]];portConstraint=eastwest;whiteSpace=wrap;html=1;" vertex="1" parent="PsaLoDMkR1xvhBFZUS9O-41">
          <mxGeometry y="115" width="314.03" height="79" as="geometry" />
        </mxCell>
        <mxCell id="PsaLoDMkR1xvhBFZUS9O-43" value="" style="line;strokeWidth=1;fillColor=none;align=left;verticalAlign=middle;spacingTop=-1;spacingLeft=3;spacingRight=3;rotatable=0;labelPosition=right;points=[];portConstraint=eastwest;strokeColor=inherit;" vertex="1" parent="PsaLoDMkR1xvhBFZUS9O-41">
          <mxGeometry y="194" width="314.03" height="1" as="geometry" />
        </mxCell>
      </root>
    </mxGraphModel>
  </diagram>
</mxfile>
